<svg width="300" height="300" viewBox="0 0 300 300" fill="none" xmlns="http://www.w3.org/2000/svg">
<g clip-path="url(#clip0_117_5)">
<path d="M150 300C232.843 300 300 232.843 300 150C300 67.1573 232.843 0 150 0C67.1573 0 0 67.1573 0 150C0 232.843 67.1573 300 150 300Z" fill="#FF4141"/>
<path d="M165.449 65.2824C165.449 56.7504 158.532 49.8339 150 49.8339C141.468 49.8339 134.552 56.7504 134.552 65.2824V187.375C134.552 195.907 141.468 202.824 150 202.824C158.532 202.824 165.449 195.907 165.449 187.375V65.2824Z" fill="white"/>
<path d="M150 250.166C158.532 250.166 165.449 243.25 165.449 234.718C165.449 226.186 158.532 219.269 150 219.269C141.468 219.269 134.552 226.186 134.552 234.718C134.552 243.25 141.468 250.166 150 250.166Z" fill="white"/>
</g>
<defs>
<clipPath id="clip0_117_5">
<rect width="300" height="300" fill="white"/>
</clipPath>
</defs>
</svg>
