<svg width="58" height="58" viewBox="0 0 58 58" fill="none" xmlns="http://www.w3.org/2000/svg">
<g opacity="0.5" clip-path="url(#clip0_111_135)">
<path d="M17.5342 34.7115L11.8115 40.4341L28.9871 57.6097L34.7098 51.8871L17.5342 34.7115Z" fill="white"/>
<path d="M40.4246 11.8387L11.8188 40.4445L17.5415 46.1671L46.1472 17.5614L40.4246 11.8387Z" fill="white"/>
<path d="M40.4192 34.7283L23.2437 51.9039L28.9663 57.6265L46.1419 40.4509L40.4192 34.7283Z" fill="white"/>
<path d="M17.5288 11.8168L11.8062 17.5394L40.4309 46.1641L46.1535 40.4415L17.5288 11.8168Z" fill="white"/>
<path d="M17.5286 11.8404L0.352966 29.016L6.07563 34.7387L23.2512 17.5631L17.5286 11.8404Z" fill="white"/>
<path d="M40.4291 11.8221L34.7064 17.5448L51.8782 34.7166L57.6009 28.9939L40.4291 11.8221Z" fill="white"/>
<path d="M28.986 0.381401L23.2633 6.10406L28.986 11.8267L34.7086 6.10407L28.986 0.381401Z" fill="white"/>
</g>
<defs>
<clipPath id="clip0_111_135">
<rect width="58" height="58" fill="white"/>
</clipPath>
</defs>
</svg>
