<svg width="54" height="58" viewBox="0 0 54 58" fill="none" xmlns="http://www.w3.org/2000/svg">
<path opacity="0.5" d="M0.0526134 55.5121H0.717918V57.9313H0.0526134V55.5121ZM5.92664 55.5121H6.57158V57.9313H5.84687L4.51287 56.2447H4.50608V57.9313H3.86114V55.5121H4.63337L5.91985 57.2003H5.92664V55.5121ZM10.3869 55.9731H9.4772V55.5121H11.9619V55.9731H11.0522V57.9313H10.3869V55.9731ZM14.8675 55.5121H17.1554V55.9731H15.5328V56.4744H17.0739V56.9153H15.5328V57.4702H17.1689V57.9313H14.8675V55.5121ZM20.2137 55.5121H21.9941C22.673 55.5121 22.7867 55.9211 22.7867 56.1693C22.7867 56.4643 22.6662 56.6538 22.3878 56.7527V56.7594C22.6798 56.803 22.7239 57.1685 22.7239 57.4065C22.7239 57.5256 22.7341 57.8089 22.8512 57.9313H22.1248C22.062 57.8206 22.0586 57.7217 22.0586 57.4669C22.0586 57.1282 21.9109 57.0444 21.7056 57.0444H20.879V57.9313H20.2137V55.5121ZM20.879 56.5834H21.7599C21.9075 56.5834 22.079 56.5012 22.079 56.2749C22.079 56.0335 21.8872 55.9731 21.7259 55.9731H20.879V56.5834ZM27.5728 57.4333H26.4476L26.2473 57.9313H25.5311L26.6088 55.5121H27.4116L28.4893 57.9313H27.7714L27.5728 57.4333ZM27.0093 56.0335L26.6258 56.9924H27.3946L27.0093 56.0335ZM33.4197 56.4274C33.3569 56.0787 33.065 55.9044 32.7187 55.9044C32.0874 55.9044 31.9533 56.3939 31.9533 56.7225C31.9533 57.0511 32.0874 57.539 32.7187 57.539C33.0412 57.539 33.3535 57.3864 33.4197 57.0025H34.1427C34.0612 57.7083 33.474 58 32.695 58C31.8022 58 31.2473 57.6194 31.2473 56.7225C31.2473 55.8239 31.8022 55.4433 32.695 55.4433C33.2856 55.4433 34.0375 55.5926 34.1359 56.4274H33.4197ZM37.8104 55.9731H36.9007V55.5121H39.3854V55.9731H38.4757V57.9313H37.8104V55.9731ZM42.291 55.5121H42.9563V57.9313H42.291V55.5121ZM45.7906 55.5121H46.5221L47.2315 57.3562L47.9427 55.5121H48.6725L47.5863 57.9313H46.8785L45.7906 55.5121ZM51.5068 55.5121H53.7963V55.9731H52.1721V56.4744H53.7132V56.9153H52.1721V57.4702H53.8099V57.9313H51.5068V55.5121ZM0 48.0869H2.23522V48.6804H2.25389C2.6697 48.2059 3.30616 47.9494 4.33127 47.9494C5.82821 47.9494 7.20464 48.7625 7.20464 50.615C7.20464 52.4676 5.82821 53.279 4.33127 53.279C3.38932 53.279 2.72402 53.051 2.32687 52.5765H2.3082V54.8666H0V48.0869ZM3.5828 51.745C4.41443 51.745 4.84043 51.2538 4.84043 50.615C4.84043 49.9579 4.47044 49.4834 3.57432 49.4834C2.68668 49.4834 2.3082 49.9025 2.3082 50.615C2.3082 51.3175 2.68668 51.745 3.5828 51.745ZM8.2026 49.6024C8.34007 48.9168 8.6269 48.4976 9.19886 48.2327C9.76403 47.9779 10.6041 47.8857 11.8227 47.8857C14.1785 47.8857 15.1119 48.4054 15.1119 49.8941V52.3033C15.1119 52.6855 15.2138 52.9135 15.3241 53.0778H12.9599C12.9123 52.932 12.8852 52.7677 12.8767 52.5849C12.3591 53.0594 11.5732 53.279 10.3445 53.279C8.79322 53.279 7.81394 52.8683 7.81394 51.5908C7.81394 50.6787 8.47075 50.0937 10.1781 50.0216L12.1282 49.9294C12.5899 49.9025 12.746 49.7936 12.746 49.5186C12.746 49.19 12.3319 49.0358 11.6751 49.0358C11.1489 49.0358 10.6228 49.1179 10.5108 49.6024H8.2026ZM12.802 50.8062C12.4151 50.8883 11.7582 50.9436 10.9368 51.0157C10.5108 51.0526 10.3088 51.1901 10.3088 51.5086C10.3088 51.8556 10.594 52.0736 11.1676 52.0736C11.9432 52.0736 12.802 51.8825 12.802 51.0258V50.8062ZM16.3305 48.0869H18.5657V49.0442H18.5844C19.1852 48.2696 19.9422 47.9494 20.7365 47.9494C20.986 47.9494 21.2456 47.9679 21.4951 48.0047V50.0484C21.0878 49.9478 20.7466 49.8656 20.3393 49.8656C19.5179 49.8656 18.6404 50.1305 18.6404 51.2068V53.0778H16.3305V48.0869ZM22.3166 49.6024C22.4557 48.9168 22.7409 48.4976 23.3145 48.2327C23.878 47.9779 24.7181 47.8857 25.9384 47.8857C28.2924 47.8857 29.2259 48.4054 29.2259 49.8941V52.3033C29.2259 52.6855 29.3277 52.9135 29.438 53.0778H27.0738C27.028 52.932 26.9992 52.7677 26.9907 52.5849C26.473 53.0594 25.6889 53.279 24.4601 53.279C22.9072 53.279 21.9279 52.8683 21.9279 51.5908C21.9279 50.6787 22.5847 50.0937 24.2938 50.0216L26.2422 49.9294C26.7038 49.9025 26.8617 49.7936 26.8617 49.5186C26.8617 49.19 26.4459 49.0358 25.789 49.0358C25.2629 49.0358 24.7368 49.1179 24.6265 49.6024H22.3166ZM26.916 50.8062C26.529 50.8883 25.8722 50.9436 25.0508 51.0157C24.6265 51.0526 24.4228 51.1901 24.4228 51.5086C24.4228 51.8556 24.7096 52.0736 25.2816 52.0736C26.0572 52.0736 26.916 51.8825 26.916 51.0258V50.8062ZM35.1373 52.548H35.1203C34.7045 53.0225 34.0663 53.279 33.0412 53.279C31.5443 53.279 30.1678 52.4676 30.1678 50.615C30.1678 48.7625 31.5443 47.9494 33.0412 47.9494C33.9832 47.9494 34.6485 48.1774 35.0456 48.6519H35.0643V46.335H37.3725V53.0778H35.1373V52.548ZM33.7897 49.4834C32.958 49.4834 32.5337 49.9763 32.5337 50.615C32.5337 51.2706 32.902 51.745 33.7982 51.745C34.6858 51.745 35.0643 51.3259 35.0643 50.615C35.0643 49.9126 34.6858 49.4834 33.7897 49.4834ZM42.0754 47.8857C44.6806 47.8857 45.8161 48.7441 45.8161 50.5782C45.8161 52.4206 44.6806 53.279 42.0754 53.279C39.4702 53.279 38.3331 52.4206 38.3331 50.5782C38.3331 48.7441 39.4702 47.8857 42.0754 47.8857ZM42.0754 51.8003C43.0072 51.8003 43.3959 51.3812 43.3959 50.5782C43.3959 49.7936 43.0072 49.3644 42.0754 49.3644C41.1505 49.3644 40.7533 49.7936 40.7533 50.5782C40.7533 51.3812 41.1505 51.8003 42.0754 51.8003ZM46.1301 53.0778L48.4586 50.4675L46.3235 48.0869H49.1511L50.0659 49.4281L50.979 48.0869H53.8065L51.6358 50.4675L54 53.0778H51.0621L50.0659 51.6645L49.0679 53.0778H46.1301ZM47.4199 23.4022C47.1467 22.0811 48.5384 20.9361 47.8799 19.5848C47.2265 18.2537 44.0442 18.3191 43.995 16.7867C43.9305 14.9962 46.5662 15.9083 47.6711 15.9435C47.6711 13.075 46.5289 10.6256 43.406 12.562C42.8816 12.562 42.1671 12.4564 41.9176 11.9953C40.9841 10.3004 43.8405 9.93826 43.9186 8.56856C43.961 7.77558 42.98 7.27263 42.6762 6.62886C42.4675 6.198 42.6508 5.64979 42.6508 5.1921C42.6508 5.00098 42.4251 4.99428 42.2723 4.95572C41.6834 4.80651 41.1352 5.14013 40.5293 5.01272C39.8572 4.86854 39.4889 4.26165 38.8898 3.98671C38.8898 4.23148 38.4621 4.55001 38.3212 4.74951C37.8799 5.35305 36.2981 7.4889 35.3341 6.5618C34.9557 6.198 35.0184 5.5559 35.0948 5.06637C35.6498 1.36634 34.2819 0.963982 30.991 0.445946C30.1916 0.315178 28.1533 -0.160938 27.2215 0.120712C27.2215 0.756104 28.0344 5.18372 26.5935 4.95237C24.881 4.95237 25.8179 0.556595 23.3332 0C22.9242 0.14753 22.3844 0.20956 22.118 0.595154C21.765 1.10313 22.4659 2.65054 22.6204 3.24905C22.8071 4.00515 22.768 5.01775 22.454 5.67661V5.79732C19.6435 5.79732 19.9303 -0.355419 15.5566 2.65724C15.5566 4.30356 19.5247 6.38744 18.1618 8.19471C17.9293 8.49648 17.5423 8.7513 17.1571 8.80328C15.0288 9.05475 14.1852 4.51815 11.8075 4.92051C11.4188 4.9859 11.0743 5.28599 10.9079 5.61458C10.3479 6.68586 12.9802 8.24835 13.3621 9.3146C13.5709 9.89635 13.3876 10.4295 13.2976 10.9911C11.2932 10.9911 8.93749 8.15279 7.07226 9.95502C6.77694 10.2333 6.45787 10.6223 6.57328 11.0548C6.76506 11.8075 8.12113 11.6801 8.53355 12.3876C8.54883 12.4178 8.5624 12.4446 8.57768 12.4765C9.28372 14.0608 7.65949 15.231 7.63743 16.6694C7.62045 17.3852 8.18393 17.7893 7.95311 18.5772C7.15542 21.2613 4.57567 18.2688 3.34859 19.4155C2.24201 20.4449 3.50134 22.5841 3.5828 23.7962C3.63372 24.5875 3.19754 25.1826 3.14832 25.9572C3.0974 26.663 3.61165 27.1911 3.78816 27.8164C4.02408 28.6731 3.77459 29.622 4.2549 30.363C5.64151 32.4838 8.00572 26.72 9.05629 29.1475C9.90489 31.1141 5.60417 31.0068 5.49895 32.4972C5.39033 33.9792 8.00572 35.3137 8.99859 36.2693C9.87095 37.1092 10.5617 38.1855 10.6788 39.3926C10.7908 40.598 10.2206 41.8202 9.90829 42.878C10.3513 42.878 10.6737 43.0675 11.1405 42.935C13.3214 42.2963 14.6011 38.8528 14.243 36.7253C13.9358 34.9331 12.9429 33.3958 12.8224 31.5214C12.7019 29.6773 14.523 26.5791 12.7783 25.2597C12.7019 25.2145 12.6221 25.1675 12.544 25.1239C12.544 25.3167 12.1265 25.3805 11.9144 25.3872C11.5325 25.3989 11.2287 25.2514 10.969 25.0535C10.5923 24.7601 10.3716 24.3125 10.6737 23.88C11.0946 23.2731 12.2844 23.3904 12.4252 22.569C12.729 20.7533 8.87808 20.3979 11.2067 18.1581C11.6394 17.7407 12.2419 17.4104 12.9106 17.464C13.9918 17.5479 16.5953 18.309 16.4476 19.677C16.378 20.2956 15.8502 20.8774 16.0776 21.5715C16.3118 22.2923 17.3811 22.2085 17.6628 22.8875C18.0447 23.8096 17.2674 24.4919 17.3421 25.3486C17.359 25.5649 17.4558 25.6437 17.6221 25.7728C17.9513 26.0242 18.5827 26.1114 18.7762 26.5305C19.2616 27.5985 17.953 28.8961 19.6961 29.4711C19.6961 28.7133 19.5213 27.6907 20.1967 27.2967C20.1967 27.4794 20.5701 27.7326 20.6822 27.9086C21.232 28.7569 21.4612 29.5532 22.5796 29.8349C22.6204 28.2288 21.7005 26.8558 21.7005 26.8122C22.505 26.8122 22.9954 27.86 23.9051 27.6202C24.7385 27.3989 24.0002 26.4853 23.8067 26.1013C23.2551 25.0049 24.0477 24.1164 23.7117 23.1038C23.3569 22.0325 20.453 21.2747 19.562 20.4113C19.2616 20.1263 18.9459 19.6552 19.0936 19.2076C19.6401 17.5294 21.6462 18.5303 23.0464 18.1346C23.7015 17.9435 24.1971 17.4959 24.6655 16.9896C25.3087 16.2838 25.7585 15.132 25.3563 14.1731C25.1169 13.6014 24.6977 13.1705 24.7996 12.453C25.2222 9.43364 30.1695 9.60128 32.3267 10.6977C33.4282 11.256 34.472 12.5351 33.8915 13.8411C33.3739 14.9879 31.9771 14.3206 30.991 14.7464C30.1203 15.117 28.9815 16.8488 28.6913 17.6669C28.2534 18.8958 29.4788 19.8229 29.5636 21.0165C29.73 23.6268 28.4876 26.0259 27.9632 28.3797C27.863 28.8122 28.25 29.3957 28.0175 29.7913C27.6373 30.4267 26.8464 30.192 26.2116 30.425C25.7195 30.6061 25.4971 30.985 25.066 31.2515C24.1428 31.8148 23.0786 32.0864 22.9581 33.3371C23.5402 33.3371 23.9679 33.0269 24.5874 32.9733C24.6757 32.9649 24.7113 33.0202 24.713 33.0923C24.7113 33.1359 24.7011 33.1728 24.6977 33.2114C24.5535 34.2977 23.6862 35.2181 24.2123 36.3531C24.9914 36.3531 25.1747 34.5593 26.4696 35.027C26.6224 35.027 26.6037 35.0354 26.6427 35.1661C26.9075 36.001 27.0144 36.7169 27.471 37.4428C27.5966 37.4428 27.9988 37.3305 27.9852 37.0103C27.9513 36.2408 27.8291 35.0773 28.0922 34.4201C28.4723 33.4444 29.1546 33.5701 28.9781 32.249C29.1784 32.249 29.4143 31.9087 29.6332 31.8366C31.2167 31.2901 31.4798 30.3831 33.491 30.4468C33.9764 30.4586 34.4686 30.4837 34.8742 30.6798C35.2272 30.6798 35.0931 30.14 34.9675 29.7192C34.2615 27.4107 33.3705 25.1273 33.3705 22.4667H33.7455C33.7455 22.7651 34.9387 24.3628 35.1678 24.735C35.4665 25.2061 36.4356 27.4023 37.2927 26.9211C37.6932 26.6898 37.9326 23.932 38.1668 23.3234C39.0171 21.0635 41.4186 20.5656 42.829 22.7534C44.1664 24.8205 43.3415 29.1844 41.6308 30.7855C40.957 31.4024 40.0065 31.4058 39.3616 31.9875C38.6878 32.5927 39.292 33.7327 39.1817 34.5308C39.0765 35.2684 38.5809 35.9642 38.031 36.4956C36.8005 37.6759 35.1712 38.2073 33.917 39.3071C33.384 39.7698 33.2669 40.5393 32.6169 40.8243C31.9771 41.0976 31.1896 40.7472 30.5226 40.94C30.0371 41.2434 29.5484 41.5452 29.0562 41.847C28.1533 42.3114 26.6987 43.096 26.2167 43.2385C26.2167 45.1346 30.8043 44.1237 31.7479 43.6207C32.4183 43.2636 32.6169 42.3935 33.2805 42.1119C33.9865 41.8067 34.606 42.5193 35.3681 42.2611C36.0741 42.0096 36.736 41.4463 37.3606 41.0356C38.5622 40.2292 39.8572 39.5502 40.9773 38.603C41.3575 38.2744 41.9549 37.8251 42.1179 37.3774C42.4081 36.5778 41.1267 34.6045 43.3976 34.9298C45.1593 35.1628 46.9125 31.6656 47.2502 30.425C47.4471 29.4694 47.6389 28.5054 47.8324 27.5465C48.0784 26.9698 48.3161 26.3931 48.5622 25.813C48.9169 24.388 47.6304 24.4349 47.4199 23.4022ZM7.52541 27.0637C6.11503 27.3554 5.12726 25.756 5.76201 24.6311C6.02848 24.1533 6.4392 23.9387 6.89914 23.6721C7.45583 23.7207 7.93444 23.7727 8.34177 24.1046C9.51793 25.0686 8.94427 26.7652 7.52541 27.0637ZM16.9364 16.9108C16.8091 16.9728 16.5664 16.8572 16.4256 16.7985C14.6333 16.0491 15.3733 14.9057 16.059 13.65C17.4337 14.1898 17.7392 16.5235 16.9364 16.9108ZM19.4432 22.1029C21.0997 22.9026 21.6716 24.2907 21.6156 24.9949C21.5986 25.2212 21.4595 25.414 21.4595 25.414C21.4595 25.414 21.0335 25.5615 20.565 25.3771C19.2344 24.849 19.4432 23.4441 19.4432 22.1029ZM32.639 27.8868C32.5694 28.4535 32.3589 28.7016 31.9872 29.109C31.3457 29.109 30.75 28.8039 30.5599 28.2372C30.3834 27.7259 30.5446 27.0854 30.5887 26.5708C30.733 24.7417 30.8739 22.6629 31.4866 21.0165C32.1026 22.3644 31.8871 23.942 32.1892 25.4676C32.342 26.2438 32.7425 27.0066 32.639 27.8868ZM41.646 19.9302C40.8025 19.9302 39.9828 20.0274 39.1511 19.8648C36.0113 19.2495 38.7167 15.7691 39.3888 14.3726C40.6684 15.521 42.0873 18.1095 41.646 19.9302Z" fill="white"/>
</svg>
