<svg width="300" height="300" viewBox="0 0 300 300" fill="none" xmlns="http://www.w3.org/2000/svg">
<path d="M90.694 179.542L61.094 209.142L149.933 297.981L179.533 268.381L90.694 179.542Z" fill="white"/>
<path d="M209.093 61.2348L61.1318 209.195L90.7318 238.795L238.693 90.8348L209.093 61.2348Z" fill="white"/>
<path d="M209.065 179.629L120.226 268.468L149.826 298.068L238.665 209.229L209.065 179.629Z" fill="white"/>
<path d="M90.6663 61.1211L61.0663 90.7211L209.125 238.78L238.725 209.18L90.6663 61.1211Z" fill="white"/>
<path d="M90.6649 61.2436L1.82565 150.083L31.4256 179.683L120.265 90.8436L90.6649 61.2436Z" fill="white"/>
<path d="M209.116 61.1491L179.516 90.7491L268.336 179.569L297.936 149.969L209.116 61.1491Z" fill="white"/>
<path d="M149.927 1.97264L120.327 31.5726L149.927 61.1726L179.527 31.5726L149.927 1.97264Z" fill="white"/>
</svg>
