<svg width="70" height="75" viewBox="0 0 70 75" fill="none" xmlns="http://www.w3.org/2000/svg">
<g clip-path="url(#clip0_1_3)">
<mask id="mask0_1_3" style="mask-type:luminance" maskUnits="userSpaceOnUse" x="0" y="0" width="74" height="75">
<path d="M0 0H73.9249V75H0V0Z" fill="white"/>
</mask>
<g mask="url(#mask0_1_3)">
<path d="M0.0682025 71.7829H0.930635V74.9111H0.0682025V71.7829ZM7.68268 71.7829H8.51872V74.9111H7.57928L5.85002 72.7302H5.84122V74.9111H5.00519V71.7829H6.00622L7.67388 73.9659H7.68268V71.7829ZM13.4645 72.379H12.2853V71.7829H15.5062V72.379H14.3269V74.9111H13.4645V72.379ZM19.2727 71.7829H22.2384V72.379H20.1351V73.0272H22.1328V73.5974H20.1351V74.3149H22.256V74.9111H19.2727V71.7829ZM26.203 71.7829H28.5109C29.3909 71.7829 29.5383 72.3118 29.5383 72.6327C29.5383 73.0142 29.3821 73.2592 29.0213 73.3871V73.3958C29.3997 73.4521 29.4569 73.9247 29.4569 74.2326C29.4569 74.3865 29.4701 74.7529 29.6219 74.9111H28.6803C28.5989 74.768 28.5945 74.6401 28.5945 74.3106C28.5945 73.8727 28.4031 73.7643 28.1368 73.7643H27.0654V74.9111H26.203V71.7829ZM27.0654 73.1681H28.2072C28.3987 73.1681 28.6209 73.0619 28.6209 72.7693C28.6209 72.4571 28.3723 72.379 28.1632 72.379H27.0654V73.1681ZM35.7425 74.2673H34.2839L34.0243 74.9111H33.0958L34.4929 71.7829H35.5335L36.9306 74.9111H35.9999L35.7425 74.2673ZM35.0121 72.4571L34.5149 73.6971H35.5115L35.0121 72.4571ZM43.3218 72.9665C43.2404 72.5156 42.862 72.2901 42.4132 72.2901C41.5947 72.2901 41.4209 72.9232 41.4209 73.3481C41.4209 73.773 41.5947 74.4038 42.4132 74.4038C42.8312 74.4038 43.236 74.2066 43.3218 73.7101H44.259C44.1534 74.6228 43.3922 75 42.3824 75C41.2251 75 40.5057 74.5079 40.5057 73.3481C40.5057 72.1861 41.2251 71.694 42.3824 71.694C43.148 71.694 44.1226 71.8869 44.2502 72.9665H43.3218ZM49.0134 72.379H47.8342V71.7829H51.0551V72.379H49.8759V74.9111H49.0134V72.379ZM54.8216 71.7829H55.6841V74.9111H54.8216V71.7829ZM59.3582 71.7829H60.3064L61.2261 74.1675L62.1479 71.7829H63.0939L61.6859 74.9111H60.7685L59.3582 71.7829ZM66.7681 71.7829H69.736V72.379H67.6305V73.0272H69.6282V73.5974H67.6305V74.3149H69.7536V74.9111H66.7681V71.7829ZM0 62.1813H2.89751V62.9488H2.92171C3.46073 62.3352 4.28576 62.0036 5.61461 62.0036C7.55508 62.0036 9.33935 63.055 9.33935 65.4505C9.33935 67.846 7.55508 68.8952 5.61461 68.8952C4.39356 68.8952 3.53113 68.6004 3.01631 67.9869H2.99211V70.9482H0V62.1813ZM4.64437 66.9116C5.72241 66.9116 6.27463 66.2764 6.27463 65.4505C6.27463 64.6007 5.79501 63.9872 4.63337 63.9872C3.48273 63.9872 2.99211 64.5291 2.99211 65.4505C2.99211 66.3588 3.48273 66.9116 4.64437 66.9116ZM10.633 64.1411C10.8112 63.2544 11.183 62.7125 11.9244 62.3699C12.6571 62.0404 13.7461 61.9212 15.3258 61.9212C18.3795 61.9212 19.5895 62.5932 19.5895 64.5183V67.6335C19.5895 68.1278 19.7215 68.4227 19.8645 68.6351H16.7998C16.7382 68.4465 16.703 68.234 16.692 67.9977C16.021 68.6113 15.0024 68.8952 13.4095 68.8952C11.3986 68.8952 10.1292 68.3641 10.1292 66.7122C10.1292 65.5329 10.9806 64.7763 13.1939 64.6831L15.7218 64.5638C16.3202 64.5291 16.5226 64.3882 16.5226 64.0327C16.5226 63.6078 15.9858 63.4083 15.1344 63.4083C14.4523 63.4083 13.7703 63.5146 13.6251 64.1411H10.633ZM16.5952 65.6976C16.0936 65.8039 15.2422 65.8754 14.1773 65.9686C13.6251 66.0163 13.3633 66.1941 13.3633 66.606C13.3633 67.0547 13.7329 67.3365 14.4765 67.3365C15.482 67.3365 16.5952 67.0894 16.5952 65.9816V65.6976ZM21.1692 62.1813H24.0667V63.4192H24.0909C24.8697 62.4176 25.851 62.0036 26.8806 62.0036C27.204 62.0036 27.5406 62.0274 27.864 62.0751V64.7177C27.336 64.5877 26.8938 64.4814 26.3658 64.4814C25.3009 64.4814 24.1635 64.824 24.1635 66.2157V68.6351H21.1692V62.1813ZM28.9289 64.1411C29.1093 63.2544 29.4789 62.7125 30.2225 62.3699C30.9529 62.0404 32.042 61.9212 33.6238 61.9212C36.6754 61.9212 37.8854 62.5932 37.8854 64.5183V67.6335C37.8854 68.1278 38.0174 68.4227 38.1604 68.6351H35.0957C35.0363 68.4465 34.9989 68.234 34.9879 67.9977C34.3169 68.6113 33.3004 68.8952 31.7076 68.8952C29.6945 68.8952 28.4251 68.3641 28.4251 66.7122C28.4251 65.5329 29.2765 64.7763 31.492 64.6831L34.0177 64.5638C34.6161 64.5291 34.8207 64.3882 34.8207 64.0327C34.8207 63.6078 34.2817 63.4083 33.4302 63.4083C32.7482 63.4083 32.0662 63.5146 31.9232 64.1411H28.9289ZM34.8911 65.6976C34.3895 65.8039 33.538 65.8754 32.4732 65.9686C31.9232 66.0163 31.6592 66.1941 31.6592 66.606C31.6592 67.0547 32.031 67.3365 32.7724 67.3365C33.7779 67.3365 34.8911 67.0894 34.8911 65.9816V65.6976ZM45.5483 67.9501H45.5263C44.9873 68.5636 44.16 68.8952 42.8312 68.8952C40.8907 68.8952 39.1064 67.846 39.1064 65.4505C39.1064 63.055 40.8907 62.0036 42.8312 62.0036C44.0522 62.0036 44.9147 62.2984 45.4295 62.9119H45.4537V59.9159H48.4458V68.6351H45.5483V67.9501ZM43.8014 63.9872C42.7234 63.9872 42.1734 64.6245 42.1734 65.4505C42.1734 66.2981 42.6508 66.9116 43.8124 66.9116C44.9631 66.9116 45.4537 66.3697 45.4537 65.4505C45.4537 64.5421 44.9631 63.9872 43.8014 63.9872ZM54.5422 61.9212C57.9193 61.9212 59.3912 63.0311 59.3912 65.4028C59.3912 67.7853 57.9193 68.8952 54.5422 68.8952C51.1651 68.8952 49.691 67.7853 49.691 65.4028C49.691 63.0311 51.1651 61.9212 54.5422 61.9212ZM54.5422 66.9832C55.7501 66.9832 56.2539 66.4412 56.2539 65.4028C56.2539 64.3882 55.7501 63.8332 54.5422 63.8332C53.3432 63.8332 52.8284 64.3882 52.8284 65.4028C52.8284 66.4412 53.3432 66.9832 54.5422 66.9832ZM59.7982 68.6351L62.8167 65.2597L60.049 62.1813H63.7144L64.9002 63.9156L66.0839 62.1813H69.7492L66.9353 65.2597L70 68.6351H66.1917L64.9002 66.8076L63.6066 68.6351H59.7982ZM61.4703 30.2615C61.1161 28.5532 62.9201 27.0725 62.0665 25.3252C61.2195 23.6039 57.0943 23.6884 57.0305 21.707C56.9469 19.3917 60.3636 20.571 61.7959 20.6165C61.7959 16.9073 60.3152 13.74 56.2671 16.2439C55.5873 16.2439 54.661 16.1074 54.3376 15.5112C53.1276 13.3195 56.8303 12.8512 56.9315 11.08C56.9865 10.0546 55.7149 9.40427 55.3211 8.57181C55.0504 8.01466 55.288 7.30576 55.288 6.71393C55.288 6.46679 54.9954 6.45812 54.7974 6.40826C54.034 6.21532 53.3234 6.64673 52.5379 6.48196C51.6667 6.29552 51.1893 5.51076 50.4127 5.15523C50.4127 5.47174 49.8582 5.88363 49.6756 6.14161C49.1036 6.92204 47.0531 9.68393 45.8035 8.48509C45.3129 8.01466 45.3943 7.18436 45.4933 6.55134C46.2127 1.76683 44.4394 1.24653 40.1735 0.57666C39.1373 0.407562 36.495 -0.208107 35.2871 0.156097C35.2871 0.977722 36.3409 6.70309 34.4731 6.40392C32.2532 6.40392 33.4676 0.719742 30.2467 0C29.7165 0.190781 29.0169 0.270988 28.6715 0.7696C28.2138 1.42647 29.1225 3.42742 29.3227 4.20135C29.5647 5.17907 29.5141 6.48847 29.1071 7.34045V7.49654C25.4637 7.49654 25.8356 -0.459587 20.1659 3.43609C20.1659 5.56495 25.3097 8.25963 23.5431 10.5966C23.2417 10.9868 22.74 11.3163 22.2406 11.3835C19.4817 11.7087 18.3883 5.84245 15.306 6.36274C14.8021 6.44728 14.3555 6.83533 14.1399 7.26024C13.4139 8.64552 16.8262 10.666 17.3212 12.0447C17.5919 12.797 17.3542 13.4864 17.2376 14.2126C14.6393 14.2126 11.5856 10.5424 9.16774 12.8729C8.78493 13.2327 8.37131 13.7357 8.52092 14.295C8.76952 15.2684 10.5274 15.1036 11.062 16.0185C11.0818 16.0575 11.0994 16.0922 11.1192 16.1334C12.0344 18.182 9.92897 19.6952 9.90037 21.5552C9.87837 22.4809 10.6088 23.0034 10.3096 24.0223C9.27554 27.4931 5.93142 23.6234 4.34076 25.1062C2.90631 26.4373 4.53877 29.2035 4.64437 30.7709C4.71037 31.7941 4.14495 32.5637 4.08115 33.5653C4.01515 34.478 4.68177 35.1609 4.91058 35.9695C5.21639 37.0773 4.89298 38.3043 5.5156 39.2625C7.31307 42.0049 10.3778 34.5517 11.7396 37.6908C12.8397 40.2337 7.26467 40.095 7.12826 42.0222C6.98746 43.9386 10.3778 45.6642 11.6648 46.8999C12.7957 47.986 13.6911 49.3778 13.8429 50.9387C13.9881 52.4974 13.2489 54.0778 12.8441 55.4457C13.4183 55.4457 13.8363 55.6907 14.4413 55.5194C17.2684 54.6935 18.9273 50.2406 18.4631 47.4896C18.0649 45.1721 16.7778 43.1842 16.6216 40.7605C16.4654 38.3758 18.8261 34.3696 16.5644 32.6635C16.4654 32.6049 16.362 32.5442 16.2608 32.4879C16.2608 32.7372 15.7196 32.8195 15.4446 32.8282C14.9496 32.8434 14.5557 32.6526 14.2191 32.3968C13.7307 32.0174 13.4447 31.4386 13.8363 30.8793C14.3819 30.0945 15.9242 30.2463 16.1068 29.184C16.5006 26.8362 11.5086 26.3766 14.5271 23.4803C15.0882 22.9405 15.8692 22.5134 16.736 22.5828C18.1375 22.6912 21.5124 23.6754 21.321 25.4444C21.2308 26.2444 20.5466 26.9966 20.8414 27.8941C21.145 28.8263 22.531 28.7179 22.8962 29.5959C23.3913 30.7882 22.3836 31.6706 22.4804 32.7784C22.5024 33.058 22.6278 33.1599 22.8434 33.3268C23.2703 33.652 24.0887 33.7647 24.3395 34.3067C24.9687 35.6877 23.2725 37.3656 25.5319 38.1092C25.5319 37.1293 25.3053 35.8069 26.181 35.2974C26.181 35.5337 26.665 35.8611 26.8102 36.0887C27.523 37.1857 27.82 38.2154 29.2699 38.5796C29.3227 36.5028 28.1302 34.7273 28.1302 34.6709C29.1731 34.6709 29.8089 36.0258 30.9881 35.7158C32.0684 35.4297 31.1114 34.2482 30.8605 33.7517C30.1455 32.3339 31.173 31.185 30.7373 29.8756C30.2775 28.4903 26.5132 27.5104 25.3581 26.394C24.9687 26.0254 24.5595 25.4162 24.7509 24.8374C25.4593 22.6674 28.0598 23.9616 29.8749 23.45C30.7241 23.2028 31.3666 22.624 31.9738 21.9693C32.8076 21.0566 33.3906 19.5673 32.8692 18.3273C32.559 17.588 32.0156 17.0309 32.1476 16.103C32.6954 12.1987 39.1087 12.4155 41.905 13.8333C43.3328 14.5552 44.6859 16.2092 43.9334 17.898C43.2624 19.3809 41.4517 18.518 40.1735 19.0687C39.0448 19.5478 37.5686 21.7872 37.1924 22.8451C36.6248 24.4342 38.2132 25.633 38.3232 27.1766C38.5388 30.5519 36.9284 33.6542 36.2485 36.6979C36.1187 37.2572 36.6204 38.0116 36.3189 38.5232C35.8261 39.3449 34.8009 39.0414 33.9781 39.3427C33.34 39.5768 33.0518 40.0668 32.493 40.4115C31.2962 41.1399 29.9167 41.4911 29.7605 43.1083C30.5151 43.1083 31.0696 42.7072 31.8726 42.6379C31.987 42.627 32.0332 42.6986 32.0354 42.7918C32.0332 42.8482 32.02 42.8959 32.0156 42.9457C31.8286 44.3505 30.7043 45.5407 31.3864 47.0083C32.3962 47.0083 32.6338 44.6887 34.3125 45.2935C34.5105 45.2935 34.4863 45.3044 34.5369 45.4735C34.8801 46.5531 35.0187 47.4788 35.6105 48.4174C35.7733 48.4174 36.2947 48.2722 36.2771 47.8581C36.2331 46.8631 36.0747 45.3586 36.4158 44.5088C36.9086 43.2471 37.793 43.4096 37.5642 41.7014C37.8238 41.7014 38.1296 41.2613 38.4134 41.1681C40.4661 40.4613 40.8071 39.2885 43.4142 39.3709C44.0434 39.3861 44.6815 39.4186 45.2073 39.6722C45.6649 39.6722 45.4911 38.9742 45.3283 38.43C44.413 35.4449 43.258 32.4922 43.258 29.0518H43.7442C43.7442 29.4377 45.2909 31.5036 45.5879 31.9849C45.9751 32.5941 47.2313 35.434 48.3424 34.8118C48.8616 34.5127 49.1718 30.9465 49.4754 30.1596C50.5777 27.2373 53.6908 26.5934 55.5191 29.4225C57.2527 32.0955 56.1835 37.7385 53.9658 39.8088C53.0924 40.6066 51.8603 40.6109 51.0243 41.3632C50.1509 42.1458 50.9341 43.6199 50.7911 44.6518C50.6547 45.6057 50.0123 46.5054 49.2994 47.1926C47.7044 48.7188 45.5923 49.406 43.9664 50.8281C43.2756 51.4265 43.1238 52.4215 42.2812 52.7901C41.4517 53.1434 40.4309 52.6903 39.5663 52.9396C38.937 53.332 38.3034 53.7223 37.6654 54.1125C36.495 54.713 34.6095 55.7275 33.9847 55.9118C33.9847 58.3637 39.9315 57.0565 41.1547 56.4061C42.0238 55.9443 42.2812 54.8192 43.1414 54.455C44.0566 54.0604 44.8597 54.9818 45.8475 54.6479C46.7627 54.3228 47.6208 53.5943 48.4304 53.0632C49.9881 52.0205 51.6667 51.1425 53.1188 49.9176C53.6116 49.4927 54.386 48.9117 54.5972 48.3329C54.9734 47.2988 53.3124 44.7472 56.2561 45.1678C58.5398 45.4691 60.8125 40.9469 61.2503 39.3427C61.5055 38.107 61.7541 36.8605 62.0049 35.6204C62.3239 34.8747 62.6319 34.1289 62.9509 33.3789C63.4108 31.5362 61.7431 31.5969 61.4703 30.2615ZM9.75516 34.9961C7.92689 35.3733 6.64645 33.3052 7.46928 31.8505C7.81469 31.2327 8.34711 30.9552 8.94333 30.6105C9.66496 30.6733 10.2854 30.7406 10.8134 31.1698C12.3381 32.4163 11.5944 34.6102 9.75516 34.9961ZM21.9546 21.8674C21.7896 21.9476 21.475 21.798 21.2924 21.7222C18.9691 20.7531 19.9283 19.2746 20.8172 17.6509C22.5992 18.3489 22.9953 21.3666 21.9546 21.8674ZM25.2041 28.5813C27.3514 29.6154 28.0928 31.4104 28.0202 32.3209C27.9982 32.6136 27.8178 32.8629 27.8178 32.8629C27.8178 32.8629 27.2656 33.0537 26.6584 32.8152C24.9335 32.1323 25.2041 30.3156 25.2041 28.5813ZM42.3098 36.0605C42.2196 36.7933 41.9468 37.1141 41.4649 37.6409C40.6333 37.6409 39.8611 37.2464 39.6147 36.5136C39.3859 35.8524 39.5949 35.0243 39.6521 34.3587C39.8391 31.9936 40.0217 29.3054 40.8159 27.1766C41.6145 28.9195 41.3351 30.9595 41.7267 32.9323C41.9248 33.936 42.444 34.9224 42.3098 36.0605ZM53.9856 25.7718C52.8922 25.7718 51.8295 25.8975 50.7515 25.6872C46.6813 24.8916 50.1883 20.3911 51.0595 18.5852C52.7184 20.0702 54.5576 23.4174 53.9856 25.7718Z" fill="white"/>
</g>
</g>
<defs>
<clipPath id="clip0_1_3">
<rect width="70" height="75" fill="white"/>
</clipPath>
</defs>
</svg>
